<svg xmlns="http://www.w3.org/2000/svg" viewBox="0 0 512 512">
    <defs>
        <linearGradient id="chatGrad" x1="0%" y1="0%" x2="100%" y2="100%">
            <stop offset="0%" stop-color="#6366f1" />
            <stop offset="100%" stop-color="#8b5cf6" />
        </linearGradient>
    </defs>
    <path d="M256 32C114.6 32 0 125.1 0 240c0 49.6 21.4 95 57 130.7C44.5 421.1 2.7 466 2.2 466.5c-2.2 2.3-2.8 5.7-1.5 8.7S4.8 480 8 480c66.3 0 116-31.8 140.6-51.4 32.7 12.3 69 19.4 107.4 19.4 141.4 0 256-93.1 256-208S397.4 32 256 32z" fill="url(#chatGrad)"/>
    <circle cx="160" cy="240" r="32" fill="#ffffff" />
    <circle cx="256" cy="240" r="32" fill="#ffffff" />
    <circle cx="352" cy="240" r="32" fill="#ffffff" />
</svg>
